<?xml version="1.0" encoding="UTF-8" standalone="no"?>
<svg
   xmlns:dc="http://purl.org/dc/elements/1.1/"
   xmlns:cc="http://creativecommons.org/ns#"
   xmlns:rdf="http://www.w3.org/1999/02/22-rdf-syntax-ns#"
   xmlns:svg="http://www.w3.org/2000/svg"
   xmlns="http://www.w3.org/2000/svg"
   xmlns:sodipodi="http://sodipodi.sourceforge.net/DTD/sodipodi-0.dtd"
   xmlns:inkscape="http://www.inkscape.org/namespaces/inkscape"
   sodipodi:docname="explosion_particle.svg"
   inkscape:version="1.0 (4035a4fb49, 2020-05-01)"
   id="svg8"
   version="1.1"
   viewBox="0 0 4.1012422 3.697659"
   height="3.697659mm"
   width="4.1012421mm">
  <defs
     id="defs2" />
  <sodipodi:namedview
     inkscape:window-maximized="1"
     inkscape:window-y="-8"
     inkscape:window-x="-8"
     inkscape:window-height="1027"
     inkscape:window-width="1920"
     fit-margin-bottom="0"
     fit-margin-right="0"
     fit-margin-left="0"
     fit-margin-top="0"
     showgrid="false"
     inkscape:document-rotation="0"
     inkscape:current-layer="layer1"
     inkscape:document-units="mm"
     inkscape:cy="12.965013"
     inkscape:cx="7.5761844"
     inkscape:zoom="15.839192"
     inkscape:pageshadow="2"
     inkscape:pageopacity="0"
     borderopacity="1.0"
     bordercolor="#666666"
     pagecolor="#000000"
     id="base" />
  <metadata
     id="metadata5">
    <rdf:RDF>
      <cc:Work
         rdf:about="">
        <dc:format>image/svg+xml</dc:format>
        <dc:type
           rdf:resource="http://purl.org/dc/dcmitype/StillImage" />
        <dc:title></dc:title>
      </cc:Work>
    </rdf:RDF>
  </metadata>
  <g
     transform="translate(-83.742777,-89.690939)"
     id="layer1"
     inkscape:groupmode="layer"
     inkscape:label="Layer 1">
    <path
       d="m 84.991687,89.690946 a 1.2489131,1.2489131 0 0 0 -1.24891,1.24891 1.2489131,1.2489131 0 0 0 0.402918,0.918728 1.2489131,1.2489131 0 0 0 -0.03206,0.281106 1.2489131,1.2489131 0 0 0 1.248908,1.248908 1.2489131,1.2489131 0 0 0 1.222336,-0.992626 1.2489131,1.2489131 0 0 0 0.01023,4.3e-5 1.2489131,1.2489131 0 0 0 1.24891,-1.248912 1.2489131,1.2489131 0 0 0 -1.24891,-1.248908 1.2489131,1.2489131 0 0 0 -0.679656,0.201125 1.2489131,1.2489131 0 0 0 -0.923748,-0.408381 z"
       style="fill:#ffffff;fill-opacity:1;stroke-width:0.793999;stroke-linecap:round;stroke-linejoin:round;paint-order:markers fill stroke"
       id="path833" />
  </g>
</svg>
